<svg xmlns="http://www.w3.org/2000/svg" viewBox="0 0 415.7 116.96"><defs><style>.cls-1{fill:#164194;}.cls-2{fill:#e1051e;}</style></defs><title>Fichier 1</title><g id="Calque_2" data-name="Calque 2"><g id="Calque_1-2" data-name="Calque 1"><polygon class="cls-1" points="61.39 0 61.39 37.09 20.99 0 20.99 0 0 0 0 67.62 22.26 67.62 22.26 31.64 62.49 67.62 62.49 67.62 83.64 67.62 83.64 0 61.39 0"/><polygon class="cls-1" points="373.1 51.66 373.1 0 350.85 0 350.85 67.62 405.95 67.62 415.7 51.66 373.1 51.66"/><polygon class="cls-1" points="177.1 0 218.43 67.62 232.26 45.03 204.99 0 177.1 0"/><polygon class="cls-2" points="224.17 0 241.88 29.16 259.72 0 224.17 0"/><polygon class="cls-1" points="270.89 67.62 293.01 30.31 301.81 47.18 292.15 47.18 283.04 62.14 311.59 62.14 314.95 67.62 339.83 67.62 298.51 0 286.9 0 246.03 67.62 270.89 67.62"/><polygon class="cls-1" points="119.52 67.62 141.65 30.31 150.45 47.18 140.79 47.18 131.67 62.14 160.22 62.14 163.59 67.62 188.47 67.62 147.15 0 135.54 0 94.66 67.62 119.52 67.62"/><path class="cls-1" d="M125,103.4c0-8,6.84-13.49,16.36-13.49,6.38,0,11.29,2.68,13.6,7.4l-8.08,2.15a6.39,6.39,0,0,0-5.51-2.57c-4.84,0-7.29,2.83-7.29,6.5s2.46,6.57,7.29,6.57a12.85,12.85,0,0,0,6.19-1.28v-1.21H141l3.74-5.86h11.11v11A26.41,26.41,0,0,1,141.47,117C132.74,117,125,112.39,125,103.4Z"/><path class="cls-1" d="M161.91,90.21h16.62c7.71,0,11.14,4.65,11.14,9.56a9.51,9.51,0,0,1-6.61,8.8l6.76,8.08h-11l-5.59-7.44v-6.27h4a3.15,3.15,0,1,0,0-6.31H171v20h-9.07Z"/><path class="cls-1" d="M192.66,103.4c0-8,6.84-13.49,16.36-13.49s16.39,5.48,16.39,13.49S218.77,117,209,117,192.66,111.41,192.66,103.4Zm23.5,0c0-3.89-2.87-6.5-7.14-6.5s-7.1,2.61-7.1,6.5,2.83,6.54,7.1,6.54S216.16,107.33,216.16,103.4Z"/><path class="cls-1" d="M230.14,105.66V90.21h9.07V105c0,2.91,1.59,4.95,4.65,4.95s4.61-2,4.61-4.95V90.21h9.07v15.45c0,7.63-6.61,11.3-13.68,11.3S230.14,113.29,230.14,105.66Z"/><path class="cls-1" d="M264.33,90.21h14.32c8,0,12.09,4.76,12.09,9.48s-4,9.52-12.09,9.52h-3v-6.27h2.57a3.16,3.16,0,1,0,0-6.31H273.4v20h-9.07Z"/></g></g></svg>